HIERARCHY
ROOT Hips
{
	OFFSET 0.000000 0.000000 0.000000
	CHANNELS 6 Xposition Yposition Zposition Xrotation Yrotation Zrotation
	JOINT LeftUpLeg_virtual
	{
		OFFSET 0.000000 0.000000 0.000000
		CHANNELS 3 Xrotation Yrotation Zrotation
		JOINT LeftUpLeg
		{
			OFFSET 10.205400 -3.823500 0.155100
			CHANNELS 3 Xrotation Yrotation Zrotation
			JOINT LeftLeg
			{
				OFFSET 0.708757 -12.982077 0.567790
				CHANNELS 3 Xrotation Yrotation Zrotation
				JOINT LeftFoot
				{
					OFFSET -0.708756 -10.717838 -2.184338
					CHANNELS 3 Xrotation Yrotation Zrotation
					JOINT LeftToeBase
					{
						OFFSET 0.108149 -7.191104 7.560241
						CHANNELS 3 Xrotation Yrotation Zrotation
						JOINT LeftToe_End
						{
							OFFSET 0.070230 0.081724 4.490308
							CHANNELS 3 Xrotation Yrotation Zrotation
							End Site
							{
								OFFSET 0 0 0
							}
						}
					}
				}
			}
		}
	}
	JOINT RightUpLeg_virtual
	{
		OFFSET 0.000000 0.000000 0.000000
		CHANNELS 3 Xrotation Yrotation Zrotation
		JOINT RightUpLeg
		{
			OFFSET -10.205400 -3.823500 0.005500
			CHANNELS 3 Xrotation Yrotation Zrotation
			JOINT RightLeg
			{
				OFFSET -0.708756 -12.982134 0.610632
				CHANNELS 3 Xrotation Yrotation Zrotation
				JOINT RightFoot
				{
					OFFSET 0.708754 -10.717769 -1.945823
					CHANNELS 3 Xrotation Yrotation Zrotation
					JOINT RightToeBase
					{
						OFFSET -0.108140 -7.191069 7.372968
						CHANNELS 3 Xrotation Yrotation Zrotation
						JOINT RightToe_End
						{
							OFFSET -0.070227 0.081735 4.479403
							CHANNELS 3 Xrotation Yrotation Zrotation
							End Site
							{
								OFFSET 0 0 0
							}
						}
					}
				}
			}
		}
	}
	JOINT Spine_virtual
	{
		OFFSET 0.000000 0.000000 0.000000
		CHANNELS 3 Xrotation Yrotation Zrotation
		JOINT Spine
		{
			OFFSET 0.000000 6.876099 0.125700
			CHANNELS 3 Xrotation Yrotation Zrotation
			JOINT Spine1
			{
				OFFSET 0.000000 5.730043 0.104720
				CHANNELS 3 Xrotation Yrotation Zrotation
				JOINT Spine1_split
				{
					OFFSET 0.000000 5.730043 0.104720
					CHANNELS 3 Xrotation Yrotation Zrotation
					JOINT Spine2
					{
						OFFSET 0.000000 5.730043 0.104720
						CHANNELS 3 Xrotation Yrotation Zrotation
						JOINT Neck_virtual
						{
							OFFSET 0.000000 0.000000 0.000000
							CHANNELS 3 Xrotation Yrotation Zrotation
							JOINT Neck
							{
								OFFSET 0.000000 10.314075 0.188496
								CHANNELS 3 Xrotation Yrotation Zrotation
								JOINT Head
								{
									OFFSET 0.000000 7.643700 -2.377400
									CHANNELS 3 Xrotation Yrotation Zrotation
									JOINT HeadTop_End
									{
										OFFSET 0.000000 43.788605 -13.619600
										CHANNELS 3 Xrotation Yrotation Zrotation
										End Site
										{
											OFFSET 0 0 0
										}
									}
								}
							}
						}
						JOINT LeftShoulder_virtual
						{
							OFFSET 0.000000 0.000000 0.000000
							CHANNELS 3 Xrotation Yrotation Zrotation
							JOINT LeftShoulder
							{
								OFFSET 2.196100 4.412489 0.087492
								CHANNELS 3 Xrotation Yrotation Zrotation
								JOINT LeftShoulder_split
								{
									OFFSET 2.196100 4.412489 0.087492
									CHANNELS 3 Xrotation Yrotation Zrotation
									JOINT LeftArm
									{
										OFFSET 8.771219 -2.981674 -0.026999
										CHANNELS 3 Xrotation Yrotation Zrotation
										JOINT LeftForeArm
										{
											OFFSET 8.512804 0.000000 -0.000000
											CHANNELS 3 Xrotation Yrotation Zrotation
											JOINT LeftHand
											{
												OFFSET 18.484802 0.000000 -0.000000
												CHANNELS 3 Xrotation Yrotation Zrotation
												End Site
												{
													OFFSET 0 0 0
												}
											}
										}
									}
								}
							}
						}
						JOINT RightShoulder_virtual
						{
							OFFSET 0.000000 0.000000 0.000000
							CHANNELS 3 Xrotation Yrotation Zrotation
							JOINT RightShoulder
							{
								OFFSET -2.196100 4.412496 0.070690
								CHANNELS 3 Xrotation Yrotation Zrotation
								JOINT RightShoulder_split
								{
									OFFSET -2.196100 4.412496 0.070690
									CHANNELS 3 Xrotation Yrotation Zrotation
									JOINT RightArm
									{
										OFFSET -8.771282 -2.981682 -0.094208
										CHANNELS 3 Xrotation Yrotation Zrotation
										JOINT RightForeArm
										{
											OFFSET -8.494598 0.000000 0.000000
											CHANNELS 3 Xrotation Yrotation Zrotation
											JOINT RightHand
											{
												OFFSET -18.483803 0.000000 0.000001
												CHANNELS 3 Xrotation Yrotation Zrotation
												End Site
												{
													OFFSET 0 0 0
												}
											}
										}
									}
								}
							}
						}
					}
				}
			}
		}
	}
}
MOTION
Frames: 10
Frame Time: 0.03333333
5.274220 50.151146 -6.442333 0.000000 0.000000 0.000000 -89.531663 -6.351275 -1.119683 11.546699 29.678483 7.331644 2.114966 -20.731007 -10.787831 13.835213 34.957919 -13.216222 10.501576 -0.257806 7.544938 0.000000 0.000000 0.000000 -87.614846 -2.625800 2.041844 9.735516 -14.360085 -9.840573 -1.780570 17.427665 -13.501294 13.699450 -31.739671 24.453609 6.717084 -4.811471 -35.671366 0.000000 0.000000 0.000000 -91.042399 2.032390 5.287426 8.604011 -1.344007 -3.710132 11.494640 1.041744 -0.039786 0.060950 0.332121 -0.084289 0.000000 0.000000 0.000000 11.088203 3.202574 -0.475412 -15.974954 -7.025723 -3.322684 8.238491 -51.258814 25.653350 0.000000 0.000000 0.000000 10.064519 2.312200 -1.860344 3.567077 11.002222 -0.748103 7.732772 -6.245158 -1.434225 21.376399 -44.483618 -24.150309 -5.970489 -53.906298 -6.852875 0.000000 0.000000 0.000000 12.416619 2.142425 -1.327681 -1.944122 -0.059947 15.857035 12.430774 6.456220 7.138922 -25.426206 37.095184 70.284552 168.451521 73.399597 -176.946665 0.000000 0.000000 0.000000 
5.220783 50.142372 -6.423965 0.000000 0.000000 0.000000 -89.751097 -6.647686 -1.390778 11.406823 29.759339 7.504946 2.589800 -20.488597 -10.474400 14.431054 34.881305 -13.804043 10.343903 -0.242508 7.638501 0.000000 0.000000 0.000000 -87.697341 -2.640357 1.980990 10.079088 -14.337289 -9.281711 -2.395646 16.951903 -13.646593 13.315430 -31.968605 23.687678 5.848864 -4.456459 -35.751573 0.000000 0.000000 0.000000 -91.275499 1.788628 5.126768 8.485355 -1.545662 -3.699354 11.058279 0.887371 0.131490 0.039073 0.345188 -0.090954 0.000000 0.000000 0.000000 10.618916 3.057177 -0.330808 -15.228926 -6.802592 -3.424539 8.876313 -51.052802 26.791099 0.000000 0.000000 0.000000 9.711323 2.133958 -1.819664 3.669958 11.114506 -1.512935 7.487737 -6.303205 -1.419704 23.043224 -44.225738 -23.646417 -7.080606 -54.235886 -7.313391 0.000000 0.000000 0.000000 12.210739 2.101048 -1.140337 -1.990850 -0.328359 15.697627 12.731132 7.264035 6.770928 -25.182385 37.144082 70.147013 169.269873 74.751817 -177.446662 0.000000 0.000000 0.000000 
5.178662 50.128628 -6.396555 0.000000 0.000000 0.000000 -89.810676 -6.780294 -1.669783 10.787936 29.920839 7.907647 3.091961 -20.332860 -10.171806 15.652645 34.565713 -14.703087 10.258750 -0.225446 7.716929 0.000000 0.000000 0.000000 -87.636142 -2.558608 1.837402 9.849224 -14.217707 -8.989419 -2.803596 16.533883 -13.612953 14.306389 -31.939454 23.639375 5.224191 -4.187909 -35.700729 0.000000 0.000000 0.000000 -91.257283 1.780047 5.015080 8.321397 -1.833903 -3.642604 10.500426 0.689362 0.347617 0.026126 0.377295 -0.106226 0.000000 0.000000 0.000000 10.014392 2.888819 -0.176255 -14.582985 -6.688613 -3.233749 9.252308 -50.840879 27.662876 0.000000 0.000000 0.000000 9.259802 1.906890 -1.676474 3.731228 10.934405 -2.116352 7.141881 -6.263138 -1.483144 24.659104 -43.631368 -23.828961 -7.874850 -54.722110 -7.564114 0.000000 0.000000 0.000000 11.856508 2.007513 -0.940680 -2.008809 -0.663107 15.453252 12.997452 7.905098 6.503126 -24.546817 37.333985 69.637235 170.281220 75.785839 -178.125542 0.000000 0.000000 0.000000 
5.144678 50.116219 -6.362261 0.000000 0.000000 0.000000 -89.721952 -6.775154 -1.957528 9.868210 30.122773 8.420712 3.492498 -20.242399 -9.903799 17.074826 34.063441 -15.597610 10.206730 -0.215191 7.784972 0.000000 0.000000 0.000000 -87.465019 -2.409894 1.658297 9.240966 -14.017709 -8.866294 -3.052763 16.218100 -13.453363 16.089095 -31.778975 23.988079 4.914947 -4.042261 -35.512565 0.000000 0.000000 0.000000 -91.040459 1.910851 4.867320 8.103791 -2.155011 -3.555264 9.843155 0.465755 0.593919 0.022641 0.421244 -0.129560 0.000000 0.000000 0.000000 9.292080 2.702600 -0.008871 -14.077502 -6.674854 -2.897820 9.296192 -50.651409 28.165101 0.000000 0.000000 0.000000 8.703857 1.654703 -1.451994 3.742558 10.505768 -2.578127 6.654501 -6.122595 -1.747803 26.065875 -42.738167 -24.821917 -8.207749 -55.220239 -7.491594 0.000000 0.000000 0.000000 11.360800 1.874082 -0.741823 -2.007791 -1.062922 15.120000 13.250303 8.335078 6.307703 -23.634355 37.676983 68.614106 171.097851 76.222329 -178.571840 0.000000 0.000000 0.000000 
5.122913 50.097183 -6.315924 0.000000 0.000000 0.000000 -89.578928 -6.715124 -2.226249 8.928232 30.247418 8.883365 3.648708 -20.207366 -9.690263 18.237433 33.484996 -16.199168 10.140516 -0.225122 7.855027 0.000000 0.000000 0.000000 -87.252873 -2.333537 1.402391 8.437304 -13.801750 -8.804635 -3.062941 15.843980 -13.270002 18.002625 -31.736098 24.239365 5.036208 -4.061563 -35.232254 0.000000 0.000000 0.000000 -90.725211 2.083920 4.691855 7.835253 -2.460023 -3.481697 9.118297 0.211239 0.853860 0.038221 0.474392 -0.145923 0.000000 0.000000 0.000000 8.499379 2.496253 0.180920 -13.722675 -6.748470 -2.594180 9.130466 -50.568501 28.313673 0.000000 0.000000 0.000000 8.062466 1.388420 -1.186627 3.709987 9.883538 -2.941878 5.988804 -5.804532 -2.199334 27.186627 -41.575939 -26.580388 -8.036320 -55.670475 -7.036846 0.000000 0.000000 0.000000 10.759177 1.703288 -0.550968 -1.993416 -1.483903 14.786002 13.466059 8.376623 6.041602 -22.514108 38.078226 67.175874 171.305079 76.132731 -178.357618 0.000000 0.000000 0.000000 
5.105001 50.082378 -6.267920 0.000000 0.000000 0.000000 -89.429777 -6.650668 -2.435842 8.214965 30.213260 9.190480 3.565493 -20.228170 -9.554729 18.919393 32.967940 -16.448890 10.078272 -0.253332 7.938737 0.000000 0.000000 0.000000 -87.128441 -2.427569 1.055885 7.639133 -13.641151 -8.760734 -2.810078 15.358778 -13.163917 19.517009 -31.929748 24.151223 5.565561 -4.186466 -34.946646 0.000000 0.000000 0.000000 -90.421111 2.161980 4.479004 7.501480 -2.715432 -3.446108 8.368922 -0.083358 1.100795 0.058271 0.512961 -0.166794 0.000000 0.000000 0.000000 7.673882 2.266591 0.384490 -13.522364 -6.881907 -2.442890 8.868114 -50.568730 28.153488 0.000000 0.000000 0.000000 7.386678 1.103530 -0.925172 3.636564 9.142848 -3.225246 5.174871 -5.341003 -2.723410 28.018080 -40.202022 -28.860196 -7.487252 -56.131533 -6.300759 0.000000 0.000000 0.000000 10.119982 1.505935 -0.373311 -1.983222 -1.843549 14.510100 13.626375 8.119496 5.835994 -21.152172 38.448474 65.354754 170.724062 75.944279 -177.323746 0.000000 0.000000 0.000000 
5.084498 50.069916 -6.213114 0.000000 0.000000 0.000000 -89.314101 -6.642090 -2.562212 7.881151 30.010485 9.286938 3.338191 -20.264644 -9.495568 19.062623 32.647997 -16.352407 10.057215 -0.292853 8.020724 0.000000 0.000000 0.000000 -87.053117 -2.625682 0.782411 7.068272 -13.514516 -8.697836 -2.587701 14.889392 -13.175238 20.293710 -32.277060 23.806245 5.828543 -4.186408 -34.855237 0.000000 0.000000 0.000000 -90.226136 2.098326 4.269263 7.087186 -2.904387 -3.456121 7.652984 -0.422545 1.308148 0.088529 0.523917 -0.181891 0.000000 0.000000 0.000000 6.862952 2.003530 0.579388 -13.446596 -7.037217 -2.518799 8.679700 -50.640996 27.781885 0.000000 0.000000 0.000000 6.721290 0.798984 -0.709776 3.535038 8.368068 -3.476152 4.354641 -4.734347 -3.234094 28.726864 -38.664792 -31.294537 -6.716477 -56.640088 -5.424207 0.000000 0.000000 0.000000 9.492909 1.285950 -0.222198 -1.988010 -2.037288 14.368502 13.883492 7.858093 5.715095 -19.543953 38.707775 63.336371 169.442746 75.976292 -175.599464 0.000000 0.000000 0.000000 
5.061495 50.059574 -6.174580 0.000000 0.000000 0.000000 -89.245062 -6.730707 -2.619164 7.953696 29.685655 9.200225 3.046981 -20.249084 -9.505193 18.707111 32.620150 -15.947208 10.081123 -0.330925 8.083065 0.000000 0.000000 0.000000 -87.025032 -2.914682 0.591960 6.823400 -13.403935 -8.618662 -2.521001 14.588152 -13.297979 20.414401 -32.568285 23.470816 5.415165 -3.932644 -35.047811 0.000000 0.000000 0.000000 -90.191337 1.893774 4.098173 6.600585 -3.026165 -3.484894 7.002919 -0.808954 1.459622 0.104525 0.526171 -0.183461 0.000000 0.000000 0.000000 6.097280 1.697332 0.745307 -13.478144 -7.222590 -2.823331 8.824998 -50.781896 27.321081 0.000000 0.000000 0.000000 6.098722 0.467870 -0.570164 3.408383 7.590393 -3.714358 3.635159 -4.169486 -3.532099 29.437627 -36.985246 -33.571449 -5.960790 -57.301776 -4.622777 0.000000 0.000000 0.000000 8.931186 1.048015 -0.107218 -2.008290 -2.008967 14.412292 13.996182 7.668145 5.531860 -17.637992 38.781397 61.279467 167.622486 76.369076 -173.383956 0.000000 0.000000 0.000000 
5.030404 50.057098 -6.148598 0.000000 0.000000 0.000000 -89.228430 -6.924626 -2.647261 8.368483 29.373020 9.019275 2.764669 -20.116705 -9.560892 17.940016 32.880421 -15.320702 10.108589 -0.356923 8.130234 0.000000 0.000000 0.000000 -87.005415 -3.213543 0.533195 6.848341 -13.308338 -8.585625 -2.564015 14.663084 -13.458092 20.329191 -32.553949 23.390056 4.791200 -3.560870 -35.372324 0.000000 0.000000 0.000000 -90.294138 1.594671 3.945979 6.058201 -3.081948 -3.469637 6.435104 -1.223213 1.550584 0.110278 0.536933 -0.185869 0.000000 0.000000 0.000000 5.388350 1.351637 0.856974 -13.583762 -7.449966 -3.302417 9.376178 -50.962910 26.839642 0.000000 0.000000 0.000000 5.522028 0.120937 -0.519615 3.258666 6.831452 -3.973080 2.995032 -3.667195 -3.594592 30.312499 -35.191231 -35.491975 -5.411535 -58.153487 -4.096928 0.000000 0.000000 0.000000 8.449262 0.804271 -0.029600 -2.053596 -1.722031 14.659042 13.716072 7.571740 5.342031 -15.369189 38.656122 59.171732 165.509472 77.003279 -170.944048 0.000000 0.000000 0.000000 
4.995888 50.052902 -6.143038 0.000000 0.000000 0.000000 -89.238539 -7.142458 -2.637919 8.957645 29.163040 8.814593 2.495755 -19.857740 -9.643947 16.876180 33.307790 -14.536541 10.049249 -0.374446 8.189132 0.000000 0.000000 0.000000 -87.029499 -3.476324 0.539318 6.959076 -13.232337 -8.618487 -2.678789 15.038080 -13.563688 20.271281 -32.279269 23.460633 4.476872 -3.258085 -35.639008 0.000000 0.000000 0.000000 -90.463397 1.286022 3.812384 5.501591 -3.086533 -3.361934 5.937170 -1.645862 1.580378 0.108594 0.559743 -0.169526 0.000000 0.000000 0.000000 4.754256 0.979329 0.903411 -13.751762 -7.699567 -3.884119 10.337461 -51.162563 26.377424 0.000000 0.000000 0.000000 4.974021 -0.235596 -0.550396 3.090596 6.067246 -4.286830 2.502856 -3.266007 -3.464389 31.415137 -33.261368 -37.043329 -5.170718 -59.213369 -3.955075 0.000000 0.000000 0.000000 8.018085 0.554633 0.014696 -2.125212 -1.239868 15.103399 13.073682 7.383890 5.091639 -12.659108 38.282777 57.058874 163.459732 77.563259 -168.636401 0.000000 0.000000 0.000000 
